<?xml version="1.0" encoding="UTF-8" ?>
<!DOCTYPE svg PUBLIC "-//W3C//DTD SVG 1.1//EN" "http://www.w3.org/Graphics/SVG/1.1/DTD/svg11.dtd">
<svg width="1469pt" height="681pt" viewBox="250 0 910 681" version="1.1" xmlns="http://www.w3.org/2000/svg">
<path fill="#ffffff" d=" M 0.00 0.00 L 1469.00 0.00 L 1469.00 681.00 L 0.00 681.00 L 0.00 0.00 Z" />
<path fill="#b61f2e" d=" M 614.10 125.40 C 638.55 116.46 665.96 115.78 690.84 123.42 C 726.41 134.19 756.10 162.38 768.88 197.27 C 773.88 210.49 776.09 224.60 776.47 238.69 C 772.00 239.53 767.42 238.64 762.91 239.08 C 757.10 238.83 751.25 239.57 745.47 238.75 C 745.60 219.14 738.84 199.60 726.82 184.13 C 716.39 170.47 701.93 159.90 685.74 154.15 C 660.69 145.07 631.62 147.89 608.92 161.89 C 591.92 172.07 578.55 188.09 571.42 206.56 C 565.00 223.15 563.64 241.67 567.64 259.01 C 572.06 278.60 583.29 296.60 598.98 309.14 C 611.06 318.95 625.75 325.49 641.12 327.93 C 645.86 328.78 650.70 328.72 655.48 329.29 C 655.44 339.47 655.47 349.65 655.46 359.83 C 617.34 360.37 579.98 340.82 557.81 309.99 C 534.65 278.96 528.27 236.42 541.09 199.91 C 552.68 165.82 580.30 137.73 614.10 125.40 Z" />
<path fill="#b1b3b5" d=" M 776.38 118.23 C 813.53 117.65 849.98 136.27 872.32 165.77 C 883.98 180.91 892.00 198.85 895.30 217.69 C 899.29 239.45 897.02 262.30 888.93 282.90 C 875.75 316.81 846.54 344.05 811.69 354.60 C 787.70 362.01 761.37 361.60 737.60 353.54 C 705.06 342.54 677.87 316.99 664.69 285.28 C 658.66 270.61 655.29 254.73 655.58 238.84 C 665.80 239.39 676.04 238.56 686.25 239.17 C 686.29 255.70 690.92 272.25 699.72 286.27 C 708.87 301.17 722.46 313.29 738.32 320.66 C 757.40 329.64 779.66 331.47 799.99 325.93 C 831.49 317.64 857.16 290.88 864.14 259.07 C 868.89 238.72 866.15 216.73 856.61 198.15 C 844.31 173.91 820.64 155.74 793.89 150.62 C 788.13 149.26 782.20 149.31 776.36 148.69 C 776.40 138.54 776.36 128.38 776.38 118.23 Z" />
<path fill="#010101" d=" M 492.80 422.63 C 494.94 422.60 497.07 422.60 499.22 422.61 C 499.22 474.05 499.22 525.49 499.22 576.93 C 498.51 576.86 497.08 576.73 496.37 576.66 C 495.30 574.21 494.56 571.64 493.64 569.14 C 483.49 575.02 471.74 577.48 460.11 578.04 C 448.98 578.36 436.78 576.51 428.37 568.56 C 419.28 560.39 416.37 547.74 415.35 536.05 C 414.69 520.64 414.37 504.07 422.21 490.22 C 427.92 479.92 439.49 474.23 450.95 473.40 C 465.20 472.47 480.24 474.38 492.74 481.67 C 492.89 461.99 492.77 442.31 492.80 422.63 Z" />
<path fill="#010101" d=" M 344.86 473.47 C 354.51 472.78 364.75 472.87 373.53 477.48 C 380.42 481.06 385.00 487.97 387.12 495.30 C 390.27 506.02 390.19 517.33 390.30 528.41 C 365.61 528.45 340.93 528.42 316.24 528.43 C 316.36 540.62 317.99 554.10 326.71 563.39 C 333.95 570.93 345.00 572.86 355.03 572.48 C 365.29 572.54 375.28 570.16 385.19 567.82 C 384.89 569.56 385.86 571.79 384.44 573.19 C 373.66 576.98 362.11 577.85 350.77 578.08 C 340.05 577.83 328.53 575.14 321.08 566.88 C 312.09 556.91 310.32 542.85 309.77 529.97 C 309.64 515.82 310.10 500.58 317.97 488.28 C 323.76 479.15 334.40 474.45 344.86 473.47 Z" />
<path fill="#010101" d=" M 537.48 479.48 C 547.22 472.79 559.71 472.63 571.05 473.57 C 576.32 474.55 581.68 474.17 587.00 474.23 C 594.82 474.24 602.64 474.20 610.46 474.25 C 610.45 476.03 610.44 477.83 610.44 479.63 C 603.03 479.58 595.62 479.33 588.22 479.36 C 597.37 485.73 600.39 497.40 600.44 507.99 C 600.45 517.16 599.51 527.11 593.66 534.60 C 587.87 542.04 578.20 545.12 569.10 545.65 C 560.97 546.05 552.56 546.12 544.81 543.30 C 540.45 546.00 536.61 550.59 537.38 556.05 C 537.28 560.67 542.01 563.46 546.10 563.95 C 561.75 566.29 577.46 568.22 593.12 570.47 C 600.18 571.50 607.53 574.08 612.11 579.85 C 616.80 585.76 617.26 593.81 616.46 601.03 C 615.23 609.86 608.86 617.13 601.24 621.32 C 590.20 627.38 577.40 629.26 564.95 629.48 C 552.69 629.63 539.72 629.14 528.66 623.25 C 520.91 619.25 516.07 610.73 516.19 602.06 C 515.53 594.55 518.35 587.02 523.40 581.50 C 528.79 575.36 536.24 571.40 543.97 569.02 C 537.64 568.43 531.37 563.72 531.38 556.92 C 530.47 550.67 534.36 545.02 539.39 541.74 C 537.71 539.06 534.51 537.89 532.72 535.30 C 525.75 526.58 525.02 514.70 525.75 504.01 C 526.32 494.79 529.52 484.93 537.48 479.48 Z" />
<path fill="#010101" d=" M 640.41 486.50 C 647.23 477.34 658.96 473.43 670.02 473.23 C 679.02 472.88 688.60 473.57 696.41 478.49 C 702.71 482.38 706.61 489.19 708.55 496.18 C 711.47 506.66 711.29 517.64 711.42 528.43 C 686.72 528.43 662.01 528.42 637.31 528.43 C 637.66 539.66 638.81 551.79 645.87 561.02 C 651.25 568.26 660.26 571.72 669.02 572.32 C 681.62 573.09 694.32 571.30 706.33 567.44 C 706.31 569.31 706.31 571.19 706.29 573.07 C 693.00 577.27 678.80 578.87 664.93 577.51 C 654.81 576.50 644.68 571.61 639.11 562.84 C 631.80 551.68 631.20 537.89 630.78 524.99 C 631.32 511.78 632.11 497.45 640.41 486.50 Z" />
<path fill="#010101" d=" M 741.26 485.18 C 746.53 477.49 756.12 474.59 764.94 473.55 C 777.60 472.47 790.46 473.61 802.70 477.03 C 802.75 479.22 802.70 481.41 802.87 483.61 C 802.34 482.29 800.78 482.29 799.66 481.90 C 787.04 478.67 773.67 477.40 760.80 479.82 C 755.52 480.95 749.97 483.07 746.73 487.61 C 743.06 492.90 742.86 499.69 743.54 505.87 C 744.24 510.70 747.41 515.13 752.05 516.87 C 766.26 522.52 782.82 519.80 796.25 527.79 C 802.94 531.64 805.32 539.70 805.41 546.97 C 805.90 555.05 803.47 563.73 797.09 569.09 C 788.62 576.52 776.80 577.70 766.01 578.16 C 756.04 577.91 746.05 576.86 736.44 574.09 C 736.41 572.19 736.40 570.29 736.41 568.41 C 750.17 572.45 764.87 573.78 779.03 571.27 C 786.35 569.89 794.08 566.33 797.29 559.17 C 799.89 552.41 799.95 544.57 797.20 537.85 C 794.13 531.34 786.52 529.22 780.04 527.93 C 768.69 525.58 756.47 525.81 746.08 520.07 C 741.21 517.51 738.17 512.41 737.53 507.03 C 736.81 499.65 736.77 491.49 741.26 485.18 Z" />
<path fill="#010101" d=" M 846.46 479.23 C 856.68 472.73 869.30 472.67 880.96 473.54 C 887.52 474.32 894.20 475.04 900.42 477.42 C 900.36 479.17 900.33 480.93 900.32 482.69 C 888.87 479.69 876.93 477.61 865.08 479.05 C 856.88 479.98 848.68 483.67 843.77 490.52 C 836.58 500.42 835.64 513.19 835.51 525.03 C 835.55 536.67 836.30 549.10 842.74 559.20 C 847.39 566.49 855.57 570.90 864.04 571.95 C 876.21 573.48 888.60 571.76 900.34 568.42 C 900.33 570.29 900.32 572.17 900.32 574.05 C 890.78 576.84 880.83 577.92 870.92 578.13 C 860.80 577.83 849.91 575.92 842.29 568.69 C 833.42 560.69 830.53 548.35 829.52 536.91 C 828.92 526.33 828.81 515.61 830.76 505.15 C 832.64 495.03 837.48 484.86 846.46 479.23 Z" />
<path fill="#010101" d=" M 931.26 477.25 C 943.76 473.49 956.95 472.60 969.93 473.48 C 977.95 474.34 986.67 476.42 992.13 482.84 C 997.47 488.85 998.29 497.35 998.44 505.05 C 998.48 529.01 998.46 552.98 998.45 576.94 C 997.60 576.86 995.90 576.70 995.05 576.62 C 994.39 574.03 993.45 571.54 992.41 569.10 C 982.24 575.62 969.91 577.57 958.06 578.17 C 949.54 577.91 940.51 576.74 933.44 571.57 C 926.79 566.94 922.78 559.04 922.24 551.03 C 921.21 542.31 922.69 532.58 928.97 526.02 C 935.66 519.01 945.60 516.46 954.95 515.56 C 967.22 514.65 979.50 514.02 991.78 513.28 C 991.59 504.35 992.96 494.30 987.24 486.67 C 982.19 480.35 973.47 479.32 965.94 478.70 C 954.31 478.29 942.43 479.30 931.33 482.98 C 931.26 481.06 931.24 479.15 931.26 477.25 Z" />
<path fill="#010101" d=" M 1032.08 481.97 C 1044.05 475.77 1057.60 472.83 1071.05 473.19 C 1078.75 473.26 1086.95 474.23 1093.45 478.72 C 1098.48 482.41 1101.96 488.61 1101.61 494.93 C 1101.52 522.34 1101.70 549.75 1101.52 577.16 C 1099.77 577.16 1098.03 577.16 1096.30 577.18 C 1095.93 568.12 1096.43 559.05 1096.02 549.99 C 1096.34 533.31 1096.13 516.61 1096.13 499.93 C 1095.97 492.81 1093.32 484.89 1086.39 481.73 C 1077.58 477.84 1067.53 478.25 1058.14 479.21 C 1049.28 480.05 1040.54 482.52 1032.82 486.99 C 1032.68 517.05 1032.96 547.12 1032.67 577.18 C 1030.56 577.16 1028.47 577.16 1026.38 577.17 C 1026.15 542.84 1026.34 508.50 1026.28 474.16 C 1027.31 474.16 1028.35 474.17 1029.40 474.18 C 1030.33 476.76 1031.26 479.34 1032.08 481.97 Z" />
<path fill="#ffffff" d=" M 430.61 489.60 C 436.38 482.26 445.86 479.10 454.91 478.67 C 467.93 478.17 481.30 480.51 492.72 487.00 C 492.89 512.69 492.81 538.38 492.76 564.07 C 480.54 571.24 465.91 573.31 451.95 572.19 C 443.09 571.42 434.27 567.27 429.24 559.72 C 422.36 549.63 421.45 536.90 421.41 525.04 C 421.48 512.81 422.73 499.53 430.61 489.60 Z" />
<path fill="#ffffff" d=" M 555.57 478.82 C 565.68 477.88 576.96 478.20 585.42 484.55 C 592.73 490.30 594.44 500.23 594.47 509.00 C 594.50 517.86 593.16 527.93 585.99 534.02 C 578.54 540.12 568.32 540.93 559.08 540.51 C 550.56 540.03 541.13 537.37 536.22 529.82 C 531.16 521.89 531.16 511.95 531.83 502.89 C 532.45 495.34 535.56 487.44 542.25 483.30 C 546.25 480.75 550.92 479.52 555.57 478.82 Z" />
<path fill="#ffffff" d=" M 646.90 488.92 C 653.69 480.81 664.86 478.36 674.99 478.62 C 683.79 478.83 693.52 481.59 698.61 489.34 C 705.14 499.07 704.96 511.34 705.28 522.60 C 682.62 522.69 659.96 522.63 637.30 522.63 C 637.69 510.96 638.93 498.13 646.90 488.92 Z" />
<path fill="#ffffff" d=" M 325.82 488.83 C 332.63 480.77 343.80 478.36 353.90 478.62 C 362.71 478.84 372.40 481.64 377.49 489.40 C 384.15 499.09 383.45 511.35 384.26 522.55 C 361.58 522.77 338.91 522.58 316.23 522.64 C 316.42 510.91 317.82 498.04 325.82 488.83 Z" />
<path fill="#ffffff" d=" M 958.94 520.75 C 969.89 520.17 980.82 519.35 991.75 518.52 C 991.79 533.42 991.82 548.32 991.74 563.22 C 978.66 570.89 962.90 574.34 947.89 571.57 C 941.45 570.43 935.18 567.00 931.75 561.28 C 928.16 555.17 927.93 547.73 928.77 540.86 C 929.66 534.46 933.46 528.38 939.23 525.30 C 945.21 521.86 952.21 521.34 958.94 520.75 Z" />
<path fill="#ffffff" d=" M 548.51 571.75 C 550.28 571.22 552.05 570.27 553.96 570.65 C 566.27 572.38 578.59 573.98 590.91 575.66 C 596.72 576.66 603.19 578.04 606.98 583.00 C 610.73 588.23 610.97 595.16 609.96 601.30 C 608.21 610.22 600.34 616.22 592.28 619.30 C 578.81 624.31 564.13 624.31 549.98 623.46 C 541.88 622.65 533.03 620.97 527.20 614.80 C 521.10 607.65 521.09 596.60 525.36 588.54 C 530.33 579.99 539.44 574.92 548.51 571.75 Z" />
</svg>
