<?xml version="1.0" standalone="no"?>
<!DOCTYPE svg PUBLIC "-//W3C//DTD SVG 20010904//EN"
 "http://www.w3.org/TR/2001/REC-SVG-20010904/DTD/svg10.dtd">
<svg version="1.0" xmlns="http://www.w3.org/2000/svg"
 width="1136.000000pt" height="1304.000000pt" viewBox="0 0 1136.000000 1304.000000"
 preserveAspectRatio="xMidYMid meet">
<metadata>
Created by potrace 1.13, written by Peter Selinger 2001-2015
</metadata>
<g transform="translate(0.000000,1304.000000) scale(0.100000,-0.100000)"
fill="#000000" stroke="none">
<path d="M0 11409 l0 -1632 54 6 c41 4 65 14 104 44 28 21 84 49 124 63 78 26
96 34 143 65 54 36 319 236 350 265 17 15 50 39 75 52 25 13 64 36 87 51 24
15 46 27 50 27 3 0 14 6 22 14 9 8 42 28 74 44 31 16 63 34 70 40 6 6 37 23
67 39 30 16 74 41 97 56 24 15 45 27 48 27 3 0 23 11 43 25 32 22 48 25 119
25 119 0 222 38 368 135 120 80 191 139 234 194 25 31 63 70 85 86 88 64 173
122 206 140 19 11 42 25 50 32 8 6 40 24 70 40 30 16 74 41 97 56 24 15 46 27
50 27 3 0 14 6 22 14 29 26 198 105 247 116 27 6 77 24 111 40 34 17 66 30 70
30 5 0 28 9 51 20 22 11 47 20 54 20 7 0 54 31 105 68 50 38 109 76 130 85 21
8 67 28 103 43 36 15 111 49 167 75 57 27 107 49 113 49 18 0 54 24 140 95 47
38 87 72 90 75 3 3 34 30 70 60 36 30 67 57 70 60 3 3 20 16 38 29 19 13 60
47 93 75 32 28 84 64 116 80 32 16 65 35 73 42 8 7 41 26 73 42 31 16 63 34
70 40 6 6 37 23 67 39 30 16 74 41 97 56 24 15 45 27 47 27 3 0 22 11 42 25
20 14 47 25 60 25 33 0 53 10 48 23 -4 12 19 28 101 71 22 12 59 34 82 49 24
15 46 27 50 27 3 0 14 6 22 14 9 7 41 26 71 42 30 15 62 33 70 40 8 6 35 23
60 36 72 40 120 70 120 74 0 2 -1267 4 -2815 4 l-2815 0 0 -1631z"/>
<path d="M5672 13027 c27 -20 110 -69 168 -100 30 -16 62 -34 70 -41 8 -7 32
-21 53 -31 21 -11 48 -30 60 -43 21 -22 21 -24 9 -225 -7 -111 -12 -301 -12
-422 1 -257 -7 -261 100 50 39 110 74 207 79 215 4 9 12 31 16 50 11 52 55
139 77 151 15 8 32 4 81 -21 34 -18 69 -38 77 -44 8 -7 37 -23 64 -37 28 -14
52 -34 58 -49 26 -62 38 -77 113 -139 123 -101 143 -113 255 -152 82 -29 140
-60 210 -115 50 -39 228 -133 282 -149 73 -23 315 -152 371 -199 57 -48 321
-188 427 -227 19 -7 40 -16 45 -20 6 -4 36 -12 67 -18 31 -7 67 -20 80 -29 13
-10 37 -24 53 -32 17 -8 48 -26 70 -39 22 -14 65 -38 95 -54 30 -16 62 -34 70
-41 8 -6 41 -25 72 -41 31 -16 90 -57 130 -92 40 -35 76 -63 81 -63 11 0 234
-150 309 -207 76 -58 108 -80 168 -111 25 -13 56 -31 70 -40 14 -9 54 -32 90
-50 35 -19 91 -53 124 -76 32 -22 66 -45 75 -51 9 -5 34 -21 56 -35 22 -14 87
-49 145 -77 100 -50 152 -67 284 -98 33 -8 71 -22 85 -32 14 -10 39 -25 54
-33 38 -19 72 -54 90 -93 27 -56 95 -109 157 -122 19 -4 55 -20 80 -35 25 -16
71 -40 102 -55 31 -15 78 -47 104 -71 66 -63 94 -75 195 -84 48 -5 93 -11 99
-15 18 -11 12 -187 -7 -236 -16 -39 -18 -84 -18 -394 l0 -350 -27 -42 c-16
-24 -28 -49 -28 -56 0 -24 47 -151 69 -187 18 -30 21 -50 21 -136 l0 -102 -47
-38 c-27 -21 -50 -41 -53 -45 -6 -7 -144 -108 -180 -131 -14 -9 -34 -24 -45
-35 -11 -10 -37 -31 -57 -47 -52 -39 -51 -61 2 -52 40 6 118 29 155 46 46 21
198 61 211 56 11 -4 14 -50 14 -248 l0 -243 -35 -71 c-20 -39 -40 -96 -45
-125 -28 -160 -32 -204 -28 -334 l5 -140 44 -85 44 -85 3 -161 4 -160 -35 -46
c-19 -25 -41 -56 -47 -69 -7 -13 -16 -26 -20 -29 -4 -3 -15 -21 -25 -40 -21
-41 -102 -148 -157 -205 -64 -68 -49 -69 87 -6 82 38 133 85 179 161 l21 35 3
-214 c2 -197 1 -216 -16 -235 -41 -46 -52 -116 -52 -332 l0 -203 30 -34 c34
-39 39 -79 12 -99 -29 -22 -42 -79 -42 -185 0 -73 -6 -119 -20 -165 -28 -88
-26 -124 10 -178 34 -51 37 -77 14 -126 -18 -37 -78 -103 -118 -129 -14 -10
-26 -21 -26 -25 0 -13 72 -43 115 -49 35 -5 42 -11 62 -51 27 -54 29 -85 6
-125 -12 -22 -18 -63 -21 -157 l-4 -126 26 -17 26 -18 -2 -229 -3 -230 -37
-22 c-20 -11 -72 -42 -115 -67 -43 -26 -94 -55 -113 -66 -19 -10 -53 -30 -75
-44 -22 -13 -53 -31 -70 -39 -16 -8 -37 -20 -45 -26 -8 -7 -49 -30 -90 -51
-41 -21 -100 -55 -131 -75 -110 -70 -115 -72 -190 -58 -78 15 -116 8 -128 -23
-5 -12 -14 -36 -21 -53 -15 -41 -97 -124 -146 -149 -22 -10 -46 -24 -54 -31
-8 -7 -40 -25 -70 -41 -30 -16 -73 -40 -95 -54 -88 -56 -114 -63 -175 -51 -64
14 -110 15 -126 4 -16 -10 -44 -79 -44 -107 0 -34 -34 -70 -94 -99 -31 -15
-58 -31 -61 -37 -13 -19 -51 -7 -86 27 l-38 37 -34 -17 c-19 -9 -50 -16 -69
-16 -18 0 -43 -3 -56 -6 -29 -8 -62 -72 -62 -121 -1 -77 -40 -132 -125 -173
-16 -8 -49 -27 -71 -42 -23 -16 -45 -28 -50 -28 -4 0 -15 -6 -23 -14 -9 -8
-41 -27 -71 -43 -30 -16 -74 -41 -97 -56 -24 -15 -46 -27 -50 -27 -3 0 -14 -6
-22 -14 -9 -7 -41 -26 -71 -42 -30 -15 -62 -33 -70 -40 -8 -7 -40 -25 -70 -41
-30 -16 -74 -41 -97 -56 -24 -15 -45 -27 -49 -27 -3 0 -17 -9 -31 -20 -54 -42
-62 -23 -64 158 -1 62 -4 114 -8 116 -3 2 -21 -46 -40 -108 -87 -285 -84 -278
-118 -296 -18 -10 -38 -22 -45 -28 -7 -5 -38 -23 -68 -39 -30 -16 -74 -41 -97
-56 -24 -15 -46 -27 -50 -27 -3 0 -14 -6 -22 -14 -9 -7 -50 -31 -91 -53 -41
-21 -94 -51 -117 -66 -24 -15 -46 -27 -50 -27 -3 0 -14 -6 -22 -14 -9 -7 -37
-25 -62 -39 -41 -22 -49 -24 -70 -12 -93 53 -141 47 -246 -34 -121 -92 -138
-112 -135 -155 3 -29 -2 -41 -27 -63 -16 -16 -47 -37 -68 -48 -21 -11 -54 -30
-73 -43 -19 -13 -53 -32 -75 -43 -22 -11 -67 -37 -100 -59 -35 -23 -73 -39
-91 -39 -17 -1 -60 -10 -94 -21 -34 -11 -84 -20 -110 -20 -39 0 -55 -6 -91
-35 -24 -19 -48 -35 -52 -35 -4 0 -22 -10 -38 -23 -36 -25 -59 -65 -59 -100 0
-29 -29 -57 -100 -94 -61 -33 -96 -53 -173 -100 l-52 -33 2853 0 2852 0 0
6520 0 6520 -2852 0 c-2245 -1 -2849 -3 -2836 -13z"/>
<path d="M1 8284 c0 -968 4 -1471 10 -1455 5 14 33 54 62 90 76 96 79 103 90
239 8 108 7 129 -7 159 -25 52 -20 74 35 156 61 91 61 100 -13 183 -110 124
-150 268 -110 400 86 283 98 458 52 749 -5 33 -12 206 -15 385 -7 364 -15 425
-71 518 l-34 56 1 -1480z"/>
<path d="M2 5630 c-1 -515 0 -524 18 -485 10 22 31 54 47 70 56 57 58 64 57
277 -1 163 -5 212 -22 285 -12 48 -29 130 -38 182 -9 52 -26 117 -39 145 l-23
51 0 -525z"/>
<path d="M1 2363 l-1 -2363 2816 0 2816 0 -29 23 c-15 12 -41 29 -58 37 -16 8
-48 26 -70 39 -22 14 -74 43 -115 64 -41 22 -82 46 -91 53 -8 8 -19 14 -22 14
-4 0 -26 12 -50 27 -23 15 -67 40 -97 56 -30 16 -62 34 -70 41 -8 6 -28 18
-45 26 -16 8 -48 26 -70 39 -22 14 -65 38 -95 54 -30 16 -62 34 -70 41 -8 6
-27 18 -41 25 -14 7 -89 63 -167 124 -341 272 -313 252 -422 286 -41 13 -93
31 -115 41 -22 9 -60 26 -85 36 -25 11 -63 33 -85 49 -49 37 -171 97 -245 120
-79 25 -160 81 -160 111 0 17 -16 35 -57 66 -32 24 -87 73 -123 110 -89 92
-152 118 -287 118 -88 0 -102 3 -135 25 -20 14 -40 25 -44 25 -3 0 -25 12 -48
28 -22 15 -54 34 -71 42 -16 8 -54 29 -82 48 -49 31 -54 39 -73 100 -20 67
-63 132 -102 153 -31 17 -146 39 -201 39 -66 0 -108 20 -184 89 -44 40 -78 61
-102 66 -108 20 -341 116 -392 161 -8 8 -19 14 -23 14 -5 0 -27 12 -50 28 -22
15 -54 34 -70 42 -15 8 -53 48 -84 88 -30 40 -64 79 -76 87 -12 7 -63 27 -115
45 -86 29 -165 66 -201 94 -8 7 -41 25 -73 41 -32 17 -79 47 -105 69 -64 53
-213 124 -283 135 -59 10 -133 50 -143 78 -4 9 3 30 13 47 11 17 29 49 40 71
11 22 31 57 45 78 14 21 26 42 26 47 0 5 6 15 13 22 7 7 18 26 25 43 13 28 13
29 -5 14 -10 -9 -31 -27 -47 -40 -16 -13 -34 -28 -40 -34 -6 -5 -27 -22 -46
-36 -19 -15 -62 -52 -95 -83 -33 -31 -66 -56 -73 -56 -8 0 -26 8 -40 19 -15
10 -47 28 -71 41 l-44 22 6 66 c3 37 10 87 16 112 53 226 52 212 49 625 -3
338 -6 402 -22 480 -10 50 -25 104 -32 120 -6 17 -14 39 -17 50 -3 11 -5
-1043 -6 -2342z"/>
</g>
</svg>
